HIERARCHY
ROOT mixamorig:Hips
{
	OFFSET -0.000008 104.274872 1.554316
	CHANNELS 6 Xposition Yposition Zposition Xrotation Yrotation Zrotation
	JOINT mixamorig:Spine
	{
		OFFSET -0.000005 10.181595 0.131519
		CHANNELS 6 Xposition Yposition Zposition Xrotation Yrotation Zrotation
		JOINT mixamorig:Spine1
		{
			OFFSET -0.000000 9.893959 -1.470707
			CHANNELS 6 Xposition Yposition Zposition Xrotation Yrotation Zrotation
			JOINT mixamorig:Spine2
			{
				OFFSET -0.000000 9.220757 -1.370641
				CHANNELS 6 Xposition Yposition Zposition Xrotation Yrotation Zrotation
				JOINT mixamorig:Neck
				{
					OFFSET 0.000001 16.740417 -2.049036
					CHANNELS 6 Xposition Yposition Zposition Xrotation Yrotation Zrotation
					JOINT mixamorig:Head
					{
						OFFSET 0.000000 9.617874 1.685006
						CHANNELS 6 Xposition Yposition Zposition Xrotation Yrotation Zrotation
						JOINT mixamorig:HeadTop_End
						{
							OFFSET 0.000002 22.037354 7.501101
							CHANNELS 6 Xposition Yposition Zposition Xrotation Yrotation Zrotation
							End Site
							{
								OFFSET 0.000168 2310.654297 -282.823242
							}
						}
					}
				}
				JOINT mixamorig:RightShoulder
				{
					OFFSET -4.569970 11.014908 -2.160885
					CHANNELS 6 Xposition Yposition Zposition Xrotation Yrotation Zrotation
					JOINT mixamorig:RightArm
					{
						OFFSET -10.592851 -0.524811 -2.232101
						CHANNELS 6 Xposition Yposition Zposition Xrotation Yrotation Zrotation
						JOINT mixamorig:RightForeArm
						{
							OFFSET -27.841511 0.000031 -0.000004
							CHANNELS 6 Xposition Yposition Zposition Xrotation Yrotation Zrotation
							JOINT mixamorig:RightHand
							{
								OFFSET -28.328831 -0.000015 0.000015
								CHANNELS 6 Xposition Yposition Zposition Xrotation Yrotation Zrotation
								JOINT mixamorig:RightHandThumb1
								{
									OFFSET -2.464806 -1.573990 2.681852
									CHANNELS 6 Xposition Yposition Zposition Xrotation Yrotation Zrotation
									JOINT mixamorig:RightHandThumb2
									{
										OFFSET -3.215179 -1.872803 1.924282
										CHANNELS 6 Xposition Yposition Zposition Xrotation Yrotation Zrotation
										JOINT mixamorig:RightHandThumb3
										{
											OFFSET -2.654831 -1.527969 1.512609
											CHANNELS 6 Xposition Yposition Zposition Xrotation Yrotation Zrotation
											JOINT mixamorig:RightHandThumb4
											{
												OFFSET -2.018814 -1.152008 1.108052
												CHANNELS 6 Xposition Yposition Zposition Xrotation Yrotation Zrotation
												End Site
												{
													OFFSET -188.809540 -114.533607 132.431396
												}
											}
										}
									}
								}
								JOINT mixamorig:RightHandIndex1
								{
									OFFSET -9.108284 -0.517868 2.259835
									CHANNELS 6 Xposition Yposition Zposition Xrotation Yrotation Zrotation
									JOINT mixamorig:RightHandIndex2
									{
										OFFSET -3.699989 0.000000 0.001215
										CHANNELS 6 Xposition Yposition Zposition Xrotation Yrotation Zrotation
										JOINT mixamorig:RightHandIndex3
										{
											OFFSET -2.850006 0.000031 -0.000522
											CHANNELS 6 Xposition Yposition Zposition Xrotation Yrotation Zrotation
											JOINT mixamorig:RightHandIndex4
											{
												OFFSET -2.772186 -0.000015 -0.000020
												CHANNELS 6 Xposition Yposition Zposition Xrotation Yrotation Zrotation
												End Site
												{
													OFFSET -277.218445 0.000000 -0.050231
												}
											}
										}
									}
								}
								JOINT mixamorig:RightHandMiddle1
								{
									OFFSET -9.532516 -0.000031 -0.000023
									CHANNELS 6 Xposition Yposition Zposition Xrotation Yrotation Zrotation
									JOINT mixamorig:RightHandMiddle2
									{
										OFFSET -3.700005 -0.000015 0.003713
										CHANNELS 6 Xposition Yposition Zposition Xrotation Yrotation Zrotation
										JOINT mixamorig:RightHandMiddle3
										{
											OFFSET -2.949974 0.000015 -0.002054
											CHANNELS 6 Xposition Yposition Zposition Xrotation Yrotation Zrotation
											JOINT mixamorig:RightHandMiddle4
											{
												OFFSET -2.946640 0.000000 -0.000156
												CHANNELS 6 Xposition Yposition Zposition Xrotation Yrotation Zrotation
												End Site
												{
													OFFSET -294.664337 0.000000 -0.113670
												}
											}
										}
									}
								}
								JOINT mixamorig:RightHandRing1
								{
									OFFSET -9.103600 -0.043076 -1.865134
									CHANNELS 6 Xposition Yposition Zposition Xrotation Yrotation Zrotation
									JOINT mixamorig:RightHandRing2
									{
										OFFSET -3.379288 0.000000 -0.001055
										CHANNELS 6 Xposition Yposition Zposition Xrotation Yrotation Zrotation
										JOINT mixamorig:RightHandRing3
										{
											OFFSET -2.889687 -0.000015 0.000379
											CHANNELS 6 Xposition Yposition Zposition Xrotation Yrotation Zrotation
											JOINT mixamorig:RightHandRing4
											{
												OFFSET -2.638809 -0.000015 0.000941
												CHANNELS 6 Xposition Yposition Zposition Xrotation Yrotation Zrotation
												End Site
												{
													OFFSET -263.880371 0.000000 0.516020
												}
											}
										}
									}
								}
								JOINT mixamorig:RightHandPinky1
								{
									OFFSET -8.076683 -0.486710 -3.806280
									CHANNELS 6 Xposition Yposition Zposition Xrotation Yrotation Zrotation
									JOINT mixamorig:RightHandPinky2
									{
										OFFSET -3.600014 -0.000015 -0.003747
										CHANNELS 6 Xposition Yposition Zposition Xrotation Yrotation Zrotation
										JOINT mixamorig:RightHandPinky3
										{
											OFFSET -2.099983 0.000000 -0.005739
											CHANNELS 6 Xposition Yposition Zposition Xrotation Yrotation Zrotation
											JOINT mixamorig:RightHandPinky4
											{
												OFFSET -2.115768 -0.000031 -0.003680
												CHANNELS 6 Xposition Yposition Zposition Xrotation Yrotation Zrotation
												End Site
												{
													OFFSET -211.577087 0.000000 -0.350686
												}
											}
										}
									}
								}
							}
						}
					}
				}
				JOINT mixamorig:LeftShoulder
				{
					OFFSET 4.570447 11.014725 -2.160855
					CHANNELS 6 Xposition Yposition Zposition Xrotation Yrotation Zrotation
					JOINT mixamorig:LeftArm
					{
						OFFSET 10.592371 -0.524597 -2.232119
						CHANNELS 6 Xposition Yposition Zposition Xrotation Yrotation Zrotation
						JOINT mixamorig:LeftForeArm
						{
							OFFSET 27.841532 -0.000031 0.000026
							CHANNELS 6 Xposition Yposition Zposition Xrotation Yrotation Zrotation
							JOINT mixamorig:LeftHand
							{
								OFFSET 28.328846 -0.000061 0.000022
								CHANNELS 6 Xposition Yposition Zposition Xrotation Yrotation Zrotation
								JOINT mixamorig:LeftHandThumb1
								{
									OFFSET 2.466141 -1.576172 2.681732
									CHANNELS 6 Xposition Yposition Zposition Xrotation Yrotation Zrotation
									JOINT mixamorig:LeftHandThumb2
									{
										OFFSET 3.217812 -1.872070 1.916482
										CHANNELS 6 Xposition Yposition Zposition Xrotation Yrotation Zrotation
										JOINT mixamorig:LeftHandThumb3
										{
											OFFSET 2.656029 -1.528778 1.514513
											CHANNELS 6 Xposition Yposition Zposition Xrotation Yrotation Zrotation
											JOINT mixamorig:LeftHandThumb4
											{
												OFFSET 2.020889 -1.154053 1.115139
												CHANNELS 6 Xposition Yposition Zposition Xrotation Yrotation Zrotation
												End Site
												{
													OFFSET 190.885437 -115.081749 130.048782
												}
											}
										}
									}
								}
								JOINT mixamorig:LeftHandIndex1
								{
									OFFSET 9.109314 -0.518021 2.259871
									CHANNELS 6 Xposition Yposition Zposition Xrotation Yrotation Zrotation
									JOINT mixamorig:LeftHandIndex2
									{
										OFFSET 3.699989 0.000000 -0.000322
										CHANNELS 6 Xposition Yposition Zposition Xrotation Yrotation Zrotation
										JOINT mixamorig:LeftHandIndex3
										{
											OFFSET 2.850006 0.000000 0.000352
											CHANNELS 6 Xposition Yposition Zposition Xrotation Yrotation Zrotation
											JOINT mixamorig:LeftHandIndex4
											{
												OFFSET 2.774864 -0.000031 -0.000027
												CHANNELS 6 Xposition Yposition Zposition Xrotation Yrotation Zrotation
												End Site
												{
													OFFSET 277.486267 0.000000 -0.009857
												}
											}
										}
									}
								}
								JOINT mixamorig:LeftHandMiddle1
								{
									OFFSET 9.533394 0.000061 0.000044
									CHANNELS 6 Xposition Yposition Zposition Xrotation Yrotation Zrotation
									JOINT mixamorig:LeftHandMiddle2
									{
										OFFSET 3.699989 -0.000015 -0.000231
										CHANNELS 6 Xposition Yposition Zposition Xrotation Yrotation Zrotation
										JOINT mixamorig:LeftHandMiddle3
										{
											OFFSET 2.949997 -0.000015 -0.000059
											CHANNELS 6 Xposition Yposition Zposition Xrotation Yrotation Zrotation
											JOINT mixamorig:LeftHandMiddle4
											{
												OFFSET 2.952896 0.000031 0.000063
												CHANNELS 6 Xposition Yposition Zposition Xrotation Yrotation Zrotation
												End Site
												{
													OFFSET 295.289337 0.000000 0.022810
												}
											}
										}
									}
								}
								JOINT mixamorig:LeftHandRing1
								{
									OFFSET 9.104523 -0.042999 -1.865074
									CHANNELS 6 Xposition Yposition Zposition Xrotation Yrotation Zrotation
									JOINT mixamorig:LeftHandRing2
									{
										OFFSET 3.150009 -0.000031 0.000043
										CHANNELS 6 Xposition Yposition Zposition Xrotation Yrotation Zrotation
										JOINT mixamorig:LeftHandRing3
										{
											OFFSET 2.949982 -0.000015 0.000040
											CHANNELS 6 Xposition Yposition Zposition Xrotation Yrotation Zrotation
											JOINT mixamorig:LeftHandRing4
											{
												OFFSET 2.644348 0.000000 0.000057
												CHANNELS 6 Xposition Yposition Zposition Xrotation Yrotation Zrotation
												End Site
												{
													OFFSET 264.434631 0.000000 0.012105
												}
											}
										}
									}
								}
								JOINT mixamorig:LeftHandPinky1
								{
									OFFSET 8.077789 -0.486847 -3.806259
									CHANNELS 6 Xposition Yposition Zposition Xrotation Yrotation Zrotation
									JOINT mixamorig:LeftHandPinky2
									{
										OFFSET 3.599953 0.000031 0.014727
										CHANNELS 6 Xposition Yposition Zposition Xrotation Yrotation Zrotation
										JOINT mixamorig:LeftHandPinky3
										{
											OFFSET 2.100021 0.000015 0.007705
											CHANNELS 6 Xposition Yposition Zposition Xrotation Yrotation Zrotation
											JOINT mixamorig:LeftHandPinky4
											{
												OFFSET 2.125504 0.000031 0.007517
												CHANNELS 6 Xposition Yposition Zposition Xrotation Yrotation Zrotation
												End Site
												{
													OFFSET 212.550781 0.000000 0.625752
												}
											}
										}
									}
								}
							}
						}
					}
				}
			}
		}
	}
	JOINT mixamorig:RightUpLeg
	{
		OFFSET -8.207787 -6.751648 -1.599560
		CHANNELS 6 Xposition Yposition Zposition Xrotation Yrotation Zrotation
		JOINT mixamorig:RightLeg
		{
			OFFSET -0.000002 -44.370117 0.345942
			CHANNELS 6 Xposition Yposition Zposition Xrotation Yrotation Zrotation
			JOINT mixamorig:RightFoot
			{
				OFFSET 0.000003 -44.423679 -3.043532
				CHANNELS 6 Xposition Yposition Zposition Xrotation Yrotation Zrotation
				JOINT mixamorig:RightToeBase
				{
					OFFSET -0.000002 -8.728671 10.710558
					CHANNELS 6 Xposition Yposition Zposition Xrotation Yrotation Zrotation
					JOINT mixamorig:RightToe_End
					{
						OFFSET -0.000001 -0.000679 9.278119
						CHANNELS 6 Xposition Yposition Zposition Xrotation Yrotation Zrotation
						End Site
						{
							OFFSET 0.000000 -0.067690 927.812134
						}
					}
				}
			}
		}
	}
	JOINT mixamorig:LeftUpLeg
	{
		OFFSET 8.207793 -6.751686 -1.599556
		CHANNELS 6 Xposition Yposition Zposition Xrotation Yrotation Zrotation
		JOINT mixamorig:LeftLeg
		{
			OFFSET -0.000004 -44.370014 0.346954
			CHANNELS 6 Xposition Yposition Zposition Xrotation Yrotation Zrotation
			JOINT mixamorig:LeftFoot
			{
				OFFSET -0.000001 -44.423672 -3.044401
				CHANNELS 6 Xposition Yposition Zposition Xrotation Yrotation Zrotation
				JOINT mixamorig:LeftToeBase
				{
					OFFSET -0.000002 -8.728669 10.710558
					CHANNELS 6 Xposition Yposition Zposition Xrotation Yrotation Zrotation
					JOINT mixamorig:LeftToe_End
					{
						OFFSET -0.000003 -0.000679 9.278133
						CHANNELS 6 Xposition Yposition Zposition Xrotation Yrotation Zrotation
						End Site
						{
							OFFSET 0.000000 -0.068021 927.813477
						}
					}
				}
			}
		}
	}
}
MOTION
Frames: 3
Frame Time: 0.033333
0.000006 104.270477 1.554256 0.000010 0.000003 -0.000113 -0.000005 10.181587 0.131522 0.000001 -0.000003 0.000084 -0.000000 9.893967 -1.470711 0.000001 0.000000 -0.000000 -0.000000 9.220802 -1.370642 0.000000 -0.000000 -0.000000 0.000001 16.740433 -2.049030 0.000000 -0.000000 -0.000000 0.000000 9.617859 1.685014 0.000000 0.000000 0.000000 0.000002 22.037384 7.501101 0.000000 -0.000000 0.000000 -4.569968 11.014880 -2.160881 0.000008 0.000001 -0.000038 -10.592878 -0.524751 -2.231910 74.542738 26.142570 -20.040337 -27.841518 0.000012 0.000553 -53.577291 109.764569 71.349891 -28.328842 0.000019 0.000022 -0.000319 -0.000044 0.000006 -2.464439 -1.573929 2.682388 -27.397793 -151.164941 30.354856 -3.215263 -1.872543 1.924643 154.770092 33.671945 16.161527 -2.654947 -1.527903 1.513072 147.117890 26.929961 -36.820802 -2.018835 -1.152016 1.108058 -0.000003 -0.000003 0.000009 -9.108405 -0.517572 2.260180 108.926313 18.571932 -25.853326 -3.700065 0.000305 0.001567 105.850686 14.737311 -19.392652 -2.850087 0.000343 -0.000208 104.854018 12.090479 -15.673969 -2.772154 -0.000014 -0.000019 -0.000001 -0.000001 -0.000001 -9.532608 0.000266 0.000236 92.744181 18.458895 -19.500470 -3.700060 0.000345 0.003963 93.138795 9.787571 -10.238844 -2.950053 0.000340 -0.001822 96.144871 10.850659 -12.065091 -2.946640 0.000015 -0.000158 -0.000000 -0.000001 0.000000 -9.103702 -0.042763 -1.864890 88.436231 19.222454 -18.669796 -3.379312 0.000315 -0.000831 90.642430 6.516904 -6.607062 -2.889746 0.000372 0.000647 97.417909 5.531102 -6.347296 -2.638817 0.000015 0.000938 0.000006 -0.000002 0.000000 -8.076764 -0.486397 -3.806028 83.379077 19.705256 -17.447744 -3.600052 0.000275 -0.003532 87.184551 9.417657 -8.625299 -2.099998 0.000313 -0.005504 90.635852 6.408925 -6.256113 -2.115783 -0.000051 -0.003681 -0.000000 -0.000000 -0.000003 4.570446 11.014691 -2.160851 -0.000018 0.000010 -0.000021 10.592508 -0.524545 -2.232386 58.786933 -64.097275 38.852257 27.841722 -0.000076 -0.000087 237.442128 -71.526007 254.528038 28.328833 -0.000013 0.000031 0.000017 -0.000089 -0.000000 2.466085 -1.576218 2.681876 -118.623911 68.658585 71.407729 3.217812 -1.871998 1.916530 -89.146024 39.409908 37.421070 2.656050 -1.528751 1.514616 -97.461438 31.510046 40.247262 2.020906 -1.154044 1.115150 0.000001 0.000001 0.000002 9.109179 -0.517733 2.260070 221.028733 -16.262341 318.214197 3.699777 0.000278 -0.000168 202.453528 -16.067042 -70.841172 2.849723 0.000182 0.000448 186.188771 -11.087212 -121.769364 2.774892 -0.000043 -0.000024 0.000000 0.000000 0.000001 9.533157 0.000071 0.000143 183.627204 -13.624348 209.649610 3.700023 0.000270 -0.000382 106.994463 -2.491264 3.362808 2.950009 0.000134 -0.000227 69.151526 5.763793 -3.972828 2.952869 -0.000014 0.000076 -0.000001 0.000000 0.000002 9.104477 -0.043070 -1.865003 177.990290 -12.076861 161.187151 3.149948 0.000250 -0.000145 -88.924774 166.815090 -193.431285 2.949935 0.000126 -0.000172 53.230021 17.845638 -8.996333 2.644321 0.000028 0.000056 -0.000001 0.000001 0.000002 8.077847 -0.486881 -3.806203 174.993709 -8.284692 125.243744 3.599881 0.000279 0.014523 95.174315 14.903128 -15.967258 2.099952 0.000139 0.007506 53.428523 20.308604 -10.195196 2.125506 -0.000014 0.007512 0.000001 -0.000002 -0.000001 -8.207786 -6.751667 -1.599560 -0.077001 -0.000003 0.000080 -0.000002 -44.370110 0.345938 0.153719 -0.000000 -0.000000 0.000000 -44.423679 -3.043532 -0.076700 0.000000 -0.000002 -0.000006 -8.728667 10.710559 -0.000009 -0.000000 -0.000000 -0.000001 -0.000679 9.278123 0.000000 -0.000000 -0.000000 8.207792 -6.751710 -1.599556 -0.074518 -0.000003 0.000081 -0.000002 -44.370014 0.346960 0.148822 0.000002 0.000000 -0.000001 -44.423664 -3.044403 -0.074314 0.000000 -0.000002 -0.000004 -8.728671 10.710558 0.000007 -0.000000 -0.000000 0.000000 -0.000680 9.278137 -0.000000 0.000000 -0.000001 
0.000006 104.270477 1.554256 0.000010 0.000003 -0.000113 -0.000005 10.181587 0.131522 0.000001 -0.000003 0.000084 -0.000000 9.893967 -1.470711 0.000001 0.000000 -0.000000 -0.000000 9.220802 -1.370642 0.000000 -0.000000 -0.000000 0.000001 16.740433 -2.049030 0.000000 -0.000000 -0.000000 0.000000 9.617859 1.685014 0.000000 0.000000 0.000000 0.000002 22.037384 7.501101 0.000000 -0.000000 0.000000 -4.569968 11.014880 -2.160881 0.000008 0.000001 -0.000038 -10.592878 -0.524746 -2.231934 74.420341 24.033055 -18.362374 -27.841516 -0.000007 0.000557 -53.306635 109.425013 70.690416 -28.328835 0.000006 0.000023 -0.000321 -0.000042 0.000006 -2.464417 -1.573930 2.682382 -30.001773 -152.148133 26.021696 -3.215268 -1.872538 1.924644 154.773671 33.326843 14.094589 -2.654972 -1.527882 1.513081 147.014371 27.076352 -35.497524 -2.018831 -1.152015 1.108064 -0.000005 -0.000004 0.000004 -9.108397 -0.517579 2.260172 109.542130 18.543538 -26.100062 -3.700057 0.000295 0.001571 106.011346 14.507043 -19.146357 -2.850083 0.000358 -0.000206 104.881482 11.706451 -15.185935 -2.772178 -0.000015 -0.000022 -0.000000 -0.000001 -0.000000 -9.532606 0.000257 0.000245 92.998012 18.585546 -19.718724 -3.700055 0.000333 0.003959 93.054299 10.007480 -10.455327 -2.950075 0.000347 -0.001787 95.695588 10.674107 -11.776394 -2.946628 0.000013 -0.000155 -0.000000 0.000000 -0.000002 -9.103720 -0.042773 -1.864882 87.968042 19.630997 -18.915336 -3.379319 0.000328 -0.000826 91.180327 7.135939 -7.301208 -2.889750 0.000354 0.000654 97.701382 5.370690 -6.195431 -2.638796 -0.000013 0.000941 0.000002 0.000002 0.000001 -8.076768 -0.486415 -3.806028 83.457050 19.702596 -17.468912 -3.600053 0.000275 -0.003531 86.953226 9.710021 -8.866754 -2.100017 0.000313 -0.005489 90.406351 6.247560 -6.069149 -2.115771 -0.000054 -0.003681 -0.000002 -0.000001 -0.000002 4.570446 11.014691 -2.160851 -0.000018 0.000010 -0.000021 10.592506 -0.524537 -2.232391 57.922852 -62.425456 37.076500 27.841717 -0.000072 -0.000089 237.224983 -71.350437 254.457933 28.328829 -0.000011 0.000025 0.000023 -0.000087 0.000001 2.466087 -1.576185 2.681883 -145.817886 66.911880 96.207012 3.217831 -1.871997 1.916534 -90.096281 38.714305 37.777964 2.656069 -1.528757 1.514635 -92.851593 29.071928 36.656304 2.020895 -1.154071 1.115149 0.000002 0.000002 0.000001 9.109184 -0.517730 2.260079 224.955996 -17.549826 319.094089 3.699853 0.000291 -0.000116 214.924975 -17.070072 -51.025386 2.849818 0.000359 0.000510 205.294108 -13.613777 -56.020334 2.774872 -0.000015 -0.000053 -0.000000 -0.000002 0.000000 9.533227 0.000059 0.000139 180.739031 -16.658632 184.997709 3.700047 0.000245 -0.000357 110.488391 -6.518578 9.379982 2.949998 0.000140 -0.000226 73.128260 3.596745 -2.666378 2.952859 -0.000016 0.000069 0.000001 0.000000 -0.000000 9.104548 -0.043046 -1.865012 174.508191 -15.315482 140.749531 3.149963 0.000259 -0.000158 -90.563787 168.841142 -191.049079 2.949937 0.000097 -0.000161 48.925256 18.821520 -8.623816 2.644328 0.000031 0.000055 0.000000 -0.000003 -0.000001 8.077877 -0.486856 -3.806209 172.244885 -11.996510 119.476237 3.599906 0.000300 0.014518 92.345469 11.778016 -11.924297 2.099962 0.000101 0.007521 46.296515 19.491208 -8.313802 2.125499 -0.000001 0.007518 -0.000001 -0.000006 -0.000001 -8.207786 -6.751667 -1.599560 -0.077001 -0.000003 0.000080 -0.000002 -44.370110 0.345938 0.153719 -0.000000 -0.000000 0.000000 -44.423679 -3.043532 -0.076700 0.000000 -0.000002 -0.000006 -8.728667 10.710559 -0.000009 -0.000000 -0.000000 -0.000001 -0.000679 9.278123 0.000000 -0.000000 -0.000000 8.207792 -6.751710 -1.599556 -0.074518 -0.000003 0.000081 -0.000002 -44.370014 0.346960 0.148822 0.000002 0.000000 -0.000001 -44.423664 -3.044403 -0.074314 0.000000 -0.000002 -0.000004 -8.728671 10.710558 0.000007 -0.000000 -0.000000 0.000000 -0.000680 9.278137 -0.000000 0.000000 -0.000001 
0.000006 104.270477 1.554256 0.000010 0.000003 -0.000113 -0.000005 10.181587 0.131522 0.000001 -0.000003 0.000084 -0.000000 9.893967 -1.470711 0.000001 0.000000 -0.000000 -0.000000 9.220802 -1.370642 0.000000 -0.000000 -0.000000 0.000001 16.740433 -2.049030 0.000000 -0.000000 -0.000000 0.000000 9.617859 1.685014 0.000000 0.000000 0.000000 0.000002 22.037384 7.501101 0.000000 -0.000000 0.000000 -4.569968 11.014880 -2.160881 0.000008 0.000001 -0.000038 -10.592880 -0.524753 -2.231925 74.361963 25.224485 -19.264823 -27.841526 0.000011 0.000575 -52.841642 109.670449 70.387517 -28.328815 0.000005 0.000025 -0.000319 -0.000045 0.000008 -2.464440 -1.573926 2.682377 -28.836721 -152.408445 28.417907 -3.215272 -1.872561 1.924663 156.442000 32.932372 9.963544 -2.654960 -1.527869 1.513082 147.352288 26.863090 -37.031780 -2.018842 -1.152002 1.108065 -0.000004 -0.000001 0.000002 -9.108408 -0.517578 2.260189 109.187233 19.066005 -26.651531 -3.700070 0.000293 0.001553 106.458860 14.854374 -19.758554 -2.850084 0.000370 -0.000200 105.367464 11.840645 -15.493072 -2.772160 -0.000014 -0.000017 -0.000001 -0.000001 -0.000001 -9.532620 0.000255 0.000254 93.178356 19.039888 -20.259116 -3.700050 0.000324 0.003962 93.235279 10.001444 -10.481893 -2.950067 0.000347 -0.001811 95.192278 10.734815 -11.740024 -2.946632 0.000000 -0.000154 -0.000002 -0.000000 -0.000003 -9.103718 -0.042760 -1.864880 88.020921 19.429720 -18.737763 -3.379324 0.000332 -0.000846 91.304794 6.914548 -7.090558 -2.889752 0.000363 0.000645 97.337128 5.407972 -6.198293 -2.638810 -0.000013 0.000939 0.000003 0.000001 -0.000003 -8.076769 -0.486396 -3.806040 83.021988 19.518714 -17.174297 -3.600043 0.000278 -0.003518 87.503220 9.600033 -8.847193 -2.100038 0.000320 -0.005482 90.886821 6.385560 -6.259873 -2.115777 -0.000039 -0.003680 0.000000 -0.000001 -0.000003 4.570446 11.014691 -2.160851 -0.000018 0.000010 -0.000021 10.592503 -0.524544 -2.232384 57.861463 -62.664875 37.195629 27.841724 -0.000072 -0.000084 237.057998 -71.679584 253.932746 28.328833 -0.000013 0.000028 0.000020 -0.000088 -0.000000 2.466116 -1.576181 2.681869 -139.911111 63.367237 88.196805 3.217836 -1.871973 1.916548 -93.462225 37.369840 39.385073 2.656064 -1.528722 1.514609 -96.209327 26.347164 37.457471 2.020899 -1.154085 1.115145 0.000008 0.000004 0.000002 9.109195 -0.517731 2.260082 228.873792 -17.401536 322.785506 3.699845 0.000298 -0.000124 219.225495 -16.898914 -45.277833 2.849851 0.000358 0.000521 210.526812 -13.943871 -48.275661 2.774880 -0.000016 -0.000033 0.000000 0.000000 -0.000000 9.533197 0.000054 0.000132 182.475197 -16.741002 196.664232 3.700045 0.000269 -0.000342 119.629971 -7.743390 13.268721 2.950007 0.000207 -0.000222 82.720455 1.271518 -1.117323 2.952868 -0.000042 0.000071 -0.000003 0.000002 -0.000001 9.104539 -0.043054 -1.865030 175.273418 -14.925333 145.038138 3.149950 0.000272 -0.000158 -82.976683 169.093067 -192.321393 2.949942 0.000132 -0.000154 54.791474 18.780587 -9.796888 2.644320 0.000048 0.000056 -0.000001 -0.000001 -0.000001 8.077853 -0.486875 -3.806217 173.868162 -11.174758 128.212869 3.599901 0.000284 0.014537 98.248228 14.021410 -15.819217 2.099950 0.000110 0.007524 51.699341 20.859895 -10.095509 2.125510 -0.000016 0.007514 0.000001 -0.000001 0.000001 -8.207786 -6.751667 -1.599560 -0.077001 -0.000003 0.000080 -0.000002 -44.370110 0.345938 0.153719 -0.000000 -0.000000 0.000000 -44.423679 -3.043532 -0.076700 0.000000 -0.000002 -0.000006 -8.728667 10.710559 -0.000009 -0.000000 -0.000000 -0.000001 -0.000679 9.278123 0.000000 -0.000000 -0.000000 8.207792 -6.751710 -1.599556 -0.074518 -0.000003 0.000081 -0.000002 -44.370014 0.346960 0.148822 0.000002 0.000000 -0.000001 -44.423664 -3.044403 -0.074314 0.000000 -0.000002 -0.000004 -8.728671 10.710558 0.000007 -0.000000 -0.000000 0.000000 -0.000680 9.278137 -0.000000 0.000000 -0.000001 
